PathFileType	4	(X/Y/Z)	2_2_25_p1_0-367_filt_butterworth.trc
DataRate	CameraRate	NumFrames	NumMarkers	Units	OrigDataRate	OrigDataStartFrame	OrigNumFrames
59.0	59.0	7	27	m	59.0	0	367
Frame#	Time	RHip			RKnee			RAnkle			RBigToe			RSmallToe			RHeel			LHip			LKnee			LAnkle			LBigToe			LSmallToe			LHeel			Neck			Head			Nose			RShoulder			RElbow			RWrist			RThumb			RIndex			RPinky			LShoulder			LElbow			LWrist			LThumb			LIndex			LPinky			
		X1	Y1	Z1	X2	Y2	Z2	X3	Y3	Z3	X4	Y4	Z4	X5	Y5	Z5	X6	Y6	Z6	X7	Y7	Z7	X8	Y8	Z8	X9	Y9	Z9	X10	Y10	Z10	X11	Y11	Z11	X12	Y12	Z12	X13	Y13	Z13	X14	Y14	Z14	X15	Y15	Z15	X16	Y16	Z16	X17	Y17	Z17	X18	Y18	Z18	X19	Y19	Z19	X20	Y20	Z20	X21	Y21	Z21	X22	Y22	Z22	X23	Y23	Z23	X24	Y24	Z24	X25	Y25	Z25	X26	Y26	Z26	X27	Y27	Z27	
0	0.0	0.3184140608733287	0.7459982653375905	0.7826526073427909	0.3183313728158792	0.2781206897519698	0.8063431449545315	0.30170540173359883	-0.16119867113367842	0.8910161844693507	0.3039334863052194	-0.15272878352133218	0.6571184065149593	0.36873636540559046	-0.19439645198452674	0.7391700828980734	0.2917829162229252	-0.20862063792343294	0.9231548711080487	0.09371855114769086	0.7612774954093082	0.7485405868150531	0.07346440144617578	0.28081612475274453	0.8128023268109562	0.055584857675285905	-0.14749768655532203	0.8667850053386493	0.1003671556289522	-0.1698913541092859	0.6885941388371497	0.021342313323435946	-0.15825267661806228	0.7079342397520492	0.06624543052778437	-0.21941602209856415	0.9240251090522815	0.23700661011743154	1.4859374173528757	0.7215005690984458	0.23955521961639076	1.75420981492743	0.6640072597347612	0.24378297642298638	1.611994455674886	0.6166365854712734	0.3986358945198427	1.3889828895491585	0.7770927171532555	0.4941872716747469	1.0762048853423543	0.7677622544352551	0.35169139018389994	0.9214575442062309	0.6363846330145162	0.21729254629817002	0.8964841103042961	0.5728383364700449	0.1917069510921924	0.8377774984741385	0.6272049189367233	0.19616572517659298	0.8124626634438861	0.6895722805553459	0.07005468405403076	1.3973565211738195	0.7541004770045885	-0.058201724655245306	1.1136261392573596	0.8401158454772337	0.06811688071952747	0.9542578546542385	0.6632003616542961	0.1376518676268289	0.9112559970322011	0.6302729903989588	0.15091306244569966	0.8760892664662165	0.6178110482748198	0.15415210798652362	0.8341683882885939	0.6387216634942899	
1	0.0169491525423728	0.3196369962958578	0.7483054003344658	0.7800453580829757	0.3187959421323019	0.2752596354085205	0.8110526458561438	0.3018441900847496	-0.16218833163590857	0.8932941383624009	0.30397731993034816	-0.1525235095727298	0.6571754572137163	0.36859799881663546	-0.1934093118108048	0.738320259874159	0.2916736595498997	-0.2090361626796196	0.923138525599962	0.09387759096853243	0.7615880733643321	0.7485880338983135	0.0748618937876655	0.2817587501481268	0.809849299773657	0.05575666335849179	-0.14811102726860853	0.8671254450284553	0.10116927151317878	-0.17422409272748005	0.6955866225641855	0.02190176293329126	-0.16320184072914815	0.7136791511165014	0.06616067679446899	-0.21986777468750862	0.9242980862802437	0.23672462181483422	1.485888817704453	0.7221654627982573	0.23959371954183653	1.7543328153590514	0.6639252942054946	0.24612015896973177	1.6121966315998084	0.611224615293035	0.3987310719448378	1.3865147528803212	0.7764542742484195	0.4958389700255679	1.0744011953052186	0.7735537576552696	0.35190756852087424	0.9199157672685621	0.6372813002047715	0.2140656502623205	0.8925051233512749	0.5801631205623397	0.1903757658852137	0.8369436337201914	0.6283290005244311	0.19808056005141048	0.8108792927897973	0.6953666793828848	0.0700844942388575	1.3973622687936313	0.7540841440319618	-0.058080172129621875	1.1134390809644672	0.8428701964930958	0.06774991495530205	0.9545775175737151	0.6621746818863931	0.13767257631510102	0.9108075235900004	0.6287528933269716	0.14863795467846702	0.8758798866032664	0.6125514588966663	0.15516089114250375	0.8326271568294714	0.6441974415929397	
2	0.0338983050847457	0.3206523575121231	0.7502454406218014	0.7778332082708098	0.31926920544330273	0.2729501179777787	0.814832023814117	0.3019560627870919	-0.163146849607483	0.8953072073775862	0.30399116195763376	-0.15235338241017451	0.6571711999678345	0.36850429071561785	-0.19274633581111425	0.7377580288508426	0.29164273891898196	-0.20952634347647997	0.9231702973301985	0.0940016080436589	0.7619596300739254	0.7485979094674082	0.07603597149104735	0.28258521019515803	0.8073635837958519	0.05588601826777427	-0.14852156547957682	0.8674696735642957	0.1016843031888127	-0.17702022690067512	0.7001391168462284	0.021945061980224584	-0.16667856128136124	0.7183717020815581	0.06610410182530292	-0.22019972419947748	0.924524881804777	0.23665371641372054	1.485873905304648	0.7223524301706162	0.2396155551772238	1.7544029428823706	0.663874128082881	0.24760590511657013	1.612326458064865	0.6077887765563759	0.3987722743487819	1.385260740613593	0.7761908003423847	0.4968557677293926	1.0734552786575517	0.7772954864188495	0.3523081800721374	0.918359229272294	0.6391384393505992	0.21245062222233793	0.890290661430847	0.5838662899258482	0.18968791149688177	0.8364147447558249	0.629398780779824	0.19957143966940566	0.8095394466689059	0.7001981896690599	0.07010569478433575	1.3973585229334813	0.7540748640620192	-0.0580381690659775	1.1133013574440567	0.84397695567467	0.06769091254022414	0.9546187278553935	0.6620141658066769	0.1377277812161587	0.9102189653680345	0.6280953902153963	0.1472690171747945	0.8750288700670702	0.6105844951888102	0.15579897053945227	0.8315729275840708	0.647929996343712	
3	0.0508474576271186	0.32147562592269735	0.7518491612662195	0.7759851596209335	0.3197490295107426	0.27114819112402755	0.8177561054078253	0.30204282529993814	-0.16407148454700188	0.8970703642982066	0.303980628859595	-0.15221703960312383	0.6571268069276692	0.36844636731076047	-0.19235214456801833	0.737432894838104	0.29167880588586625	-0.21007684347079955	0.923243171368548	0.09409378287431674	0.7623890450971709	0.7485739826455753	0.07700335141173538	0.2833044374116581	0.805310814569123	0.055977149126569294	-0.1487521662580331	0.8678137278920065	0.10196634132831044	-0.1785643787116971	0.7027002045829834	0.021626099959798785	-0.1688420074115599	0.7219550310126899	0.06607236886387358	-0.22042691240777768	0.924710100155865	0.23672468657842607	1.485881504608982	0.7222177178560594	0.23962379882592655	1.7544305856466855	0.6638486678871961	0.24840362346480116	1.6123970274224875	0.6059493800576726	0.3987717175807498	1.3849721461556026	0.776201779049019	0.4973622239533114	1.07321006379999	0.7793838131544499	0.3528311079272937	0.9168698167718674	0.641617398554016	0.2121120126689354	0.8894792615645611	0.5846683319572039	0.1896672618051269	0.8362290094957452	0.6299943018482488	0.2008066693705706	0.8085901549435552	0.703617818159836	0.07011928656549798	1.3973468844464636	0.7540720726764418	-0.058062707787496455	1.1132359948939756	0.8437121017590057	0.06782392429273065	0.9544837002801243	0.6623964341057321	0.1377998329437372	0.9095390659725845	0.62801131457326	0.14664654445059294	0.8738317795279638	0.611033030791851	0.15613172623450736	0.8309371362514484	0.650182096905799	
4	0.0677966101694915	0.322122282928153	0.7531473373343416	0.7744702138479866	0.32023328109648236	0.26980990851155123	0.8198997172166429	0.3021062830826008	-0.16495949595306525	0.8985985819075629	0.30395133710875066	-0.15211311872103417	0.6570634502435762	0.3684153548102861	-0.1921713586640799	0.7372943628459239	0.29177051200624693	-0.2106733258193637	0.9233501327848006	0.09415729596175251	0.7628731979931501	0.7485200225560529	0.07778075040514361	0.2839253643154475	0.8036566277850532	0.05603428265831279	-0.14882569467378398	0.8681536449574233	0.10206947660412849	-0.17914117024337214	0.7037184686741548	0.021098766367576717	-0.16985134825660184	0.7243722762753669	0.06606214115376835	-0.22056438108571594	0.9248583458634918	0.23686832497328644	1.485900440072975	0.7219175724951232	0.23962152279131868	1.754426131801294	0.6638438201387152	0.24867672261572443	1.6124214320251067	0.6053267365933018	0.3987416174898167	1.3854002629129785	0.7763866939821913	0.49748289786441513	1.0735084791331684	0.7802151102905256	0.35341423517594756	0.9155294163217235	0.6443795259170385	0.21271437209282593	0.8897094607739654	0.5832897340530396	0.1903376906878795	0.8364246058546589	0.6296956058750518	0.2019545544948974	0.8081784474760889	0.7051765716011785	0.07012627045737668	1.3973289541856722	0.7540752054569105	-0.05814078061736303	1.1132660195120712	0.8423516134831521	0.06803300103125852	0.9542746496287559	0.6629991074741428	0.13787108211157187	0.9088165690099315	0.6282114999095905	0.14661083102177336	0.8725841776562829	0.6130199393463881	0.1562245382848073	0.8306512185306603	0.6512165124383935	
5	0.0847457627118644	0.3226078099290627	0.7541707438927892	0.7732573726666097	0.3207198269623829	0.2688913238046332	0.821337685819944	0.3021482415943923	-0.16580814332427313	0.899906832988955	0.3039089031776204	-0.1520402573333676	0.6570023020659113	0.3684023794224185	-0.19214859868186665	0.7372919378842822	0.2919065088358182	-0.2113014536789588	0.9234841666487459	0.09419532780721272	0.7634089683209453	0.7484397983220787	0.0783848853266861	0.2844569234243465	0.8023666591352241	0.056061645586440716	-0.14876501579663634	0.8684854617063822	0.10204779968872357	-0.17903522357853133	0.7036424920194474	0.020516950699121295	-0.16986575295334944	0.7255665762350602	0.06607008193857464	-0.22062717200659893	0.9249742234576411	0.23701542426263777	1.4859195361521478	0.7216082407283453	0.2396117993767748	1.7543999694954933	0.6638544913577145	0.24858861117064018	1.612412764225153	0.6055411569596402	0.39869418992505834	1.3862963842923473	0.7766450287557705	0.4973423486297954	1.074193453057721	0.780185750255532	0.3539954449077043	0.9144199144763006	0.6470861695416837	0.21392225098472312	0.8906197960806064	0.5804509836099887	0.19172307202307032	0.8370397117472707	0.6280827350055794	0.20318340038237864	0.8084513541288473	0.7044254567390529	0.07012764733500451	1.3973063330042	0.7540836979851073	-0.05825937987876165	1.1134144574961884	0.8401714695841598	0.06820219357424484	0.9540937906821364	0.6634998066024935	0.1379238793333982	0.9081002180863543	0.628406779733415	0.1470021714042471	0.8715816271223606	0.6156680944930206	0.1561427867474907	0.8306466101207604	0.6512960121006885	
6	0.1016949152542373	0.322947688325999	0.7549501560081844	0.7723156377914425	0.32120653387030507	0.2683484906675573	0.8221448377971028	0.302170506294625	-0.1666146861592257	0.9010100903256832	0.30381664148598486	-0.1519408793466304	0.6568730085759891	0.36839527447543297	-0.19220905859550497	0.7373492258613682	0.2920754479302744	-0.21194689020636975	0.923638258030174	0.0942110589119439	0.7639932356396385	0.7483370790668911	0.07883247303177687	0.28490804725617463	0.8014065443112184	0.05606346463438901	-0.14859299469639664	0.8688052150847188	0.10201039921702909	-0.1788071120968657	0.7033502938557453	0.020200254250400076	-0.16903482783729426	0.7251911236720541	0.06609285446187986	-0.22063032694373302	0.9250623374682969	0.23712583006327292	1.4859332515253194	0.7213736359129179	0.2396012902789954	1.7543676325123168	0.663875532459575	0.24836156718885644	1.6123835898896826	0.6060698898621937	0.39865136803041207	1.3872652204678801	0.7767489366228009	0.4971351809981367	1.0750314348802124	0.7799571890917234	0.35452408164689264	0.9136392013497232	0.6494372236201099	0.21504402707281076	0.8917550562643882	0.5774625229766152	0.19428037301502177	0.8383873433746372	0.623620287216545	0.20480324902310462	0.8098260760176423	0.7001343832111668	0.0701263722360374	1.3972809605244025	0.7540937495643442	-0.0584057668964435	1.1137598155039605	0.8375855721210748	0.06814474292957994	0.9541300567162547	0.6633183101748257	0.13794763937126917	0.9073394483209517	0.6280798626671436	0.14760512294748546	0.871476886424462	0.6175648930575349	0.15590590328709694	0.8308033582620582	0.6508887255703342	
